HIERARCHY
ROOT SpineBase
{
  OFFSET 0.000000 0.000000 0.000000
  CHANNELS 6 Xposition Yposition Zposition Zrotation Xrotation Yrotation
  JOINT SpineMid
  {
    OFFSET 0.000000 31.470887 0.000000
    CHANNELS 3 Zrotation Xrotation Yrotation
    JOINT SpineShoulder
    {
      OFFSET -0.111265 23.398013 -1.110079
      CHANNELS 3 Zrotation Xrotation Yrotation
      JOINT Neck
      {
        OFFSET -0.148147 7.735523 -0.672123
        CHANNELS 3 Zrotation Xrotation Yrotation
        JOINT Head
        {
          OFFSET -4.772126 11.841120 4.268682
          CHANNELS 3 Zrotation Xrotation Yrotation
          End Site
          {
            OFFSET 0 0 0
          }
        }
      }
      JOINT ShoulderLeft
      {
        OFFSET -13.027699 -7.533217 45.218354
        CHANNELS 3 Zrotation Xrotation Yrotation
        JOINT ElbowLeft
        {
          OFFSET -0.275296 -29.085661 -6.948715
          CHANNELS 3 Zrotation Xrotation Yrotation
          JOINT WristLeft
          {
            OFFSET 1.309018 -28.492330 -2.612524
            CHANNELS 3 Zrotation Xrotation Yrotation
            JOINT HandLeft
            {
              OFFSET -1.377022 -8.295319 2.960410
              CHANNELS 3 Zrotation Xrotation Yrotation
              JOINT HandTipLeft
              {
                OFFSET 0.307919 -9.013984 0.075761
                CHANNELS 3 Zrotation Xrotation Yrotation
                End Site
                {
                  OFFSET 0 0 0
                }
              }
              JOINT ThumbLeft
              {
                OFFSET -3.719806 3.526804 0.783133
                CHANNELS 3 Zrotation Xrotation Yrotation
                End Site
                {
                  OFFSET 0 0 0
                }
              }
            }
          }
        }
      }
      JOINT ShoulderRight
      {
        OFFSET 8.519881 -2.196356 -12.917900
        CHANNELS 3 Zrotation Xrotation Yrotation
        JOINT ElbowRight
        {
          OFFSET 3.581013 -25.413603 -10.551553
          CHANNELS 3 Zrotation Xrotation Yrotation
          JOINT WristRight
          {
            OFFSET -3.953519 -24.504401 -6.611241
            CHANNELS 3 Zrotation Xrotation Yrotation
            JOINT HandRight
            {
              OFFSET -1.289120 -6.071574 -0.094271
              CHANNELS 3 Zrotation Xrotation Yrotation
              JOINT HandTipRight
              {
                OFFSET -2.137118 -8.193418 -1.893132
                CHANNELS 3 Zrotation Xrotation Yrotation
                End Site
                {
                  OFFSET 0 0 0
                }
              }
              JOINT ThumbRight
              {
                OFFSET -4.053546 2.136926 0.961839
                CHANNELS 3 Zrotation Xrotation Yrotation
                End Site
                {
                  OFFSET 0 0 0
                }
              }
            }
          }
        }
      }
    }
  }
  JOINT HipLeft
  {
    OFFSET -2.601581 0.027768 1.869360
    CHANNELS 3 Zrotation Xrotation Yrotation
    JOINT KneeLeft
    {
      OFFSET 3.564712 -39.574483 -6.695773
      CHANNELS 3 Zrotation Xrotation Yrotation
      JOINT AnkleLeft
      {
        OFFSET 17.340787 -27.675366 -23.693172
        CHANNELS 3 Zrotation Xrotation Yrotation
        JOINT FootLeft
        {
          OFFSET -4.054078 -5.662712 -4.783519
          CHANNELS 3 Zrotation Xrotation Yrotation
          End Site
          {
            OFFSET 0 0 0
          }
        }
      }
    }
  }
  JOINT HipRight
  {
    OFFSET 1.246254 3.759896 -9.237843
    CHANNELS 3 Zrotation Xrotation Yrotation
    JOINT KneeRight
    {
      OFFSET 9.662427 -34.956388 -17.942913
      CHANNELS 3 Zrotation Xrotation Yrotation
      JOINT AnkleRight
      {
        OFFSET 5.517025 -29.204586 -5.937824
        CHANNELS 3 Zrotation Xrotation Yrotation
        JOINT FootRight
        {
          OFFSET -10.666474 -3.236410 -7.346701
          CHANNELS 3 Zrotation Xrotation Yrotation
          End Site
          {
            OFFSET 0 0 0
          }
        }
      }
    }
  }
}
MOTION
Frames: 12
Frame Time: 0.033333
49.440531 77.654749 262.950742 -0.000000 0.000000 70.892534 0.000000 -0.000000 -70.892534 -0.000000 0.000000 0.000000 -0.000000 0.000000 0.000000 0.000000 0.000000 0.000000 -0.000000 0.000000 0.000000 -0.000000 0.000000 0.000000 -0.000000 0.000000 0.000000 -0.000000 0.000000 0.000000 0.000000 0.000000 0.000000 0.000000 0.000000 0.000000 -0.000000 0.000000 0.000000 -0.000000 0.000000 0.000000 -0.000000 0.000000 0.000000 -0.000000 0.000000 0.000000 0.000000 0.000000 0.000000 0.000000 0.000000 0.000000 0.000000 -0.000000 -70.892534 -0.000000 0.000000 0.000000 -0.000000 0.000000 0.000000 0.000000 0.000000 0.000000 0.000000 -0.000000 -70.892534 -0.000000 0.000000 0.000000 -0.000000 0.000000 0.000000 0.000000 0.000000 0.000000
49.433871 77.863639 262.809165 0.041648 0.124688 71.035861 -0.131455 -0.001133 -71.035908 -0.000000 0.000000 0.000000 -0.000000 0.000000 0.000000 0.000000 0.000000 0.000000 -0.000000 0.000000 0.000000 -0.000000 0.000000 0.000000 -0.000000 0.000000 0.000000 0.848662 0.449160 0.019146 0.000000 0.000000 0.000000 0.000000 0.000000 0.000000 -0.000000 0.000000 0.000000 -0.000000 0.000000 0.000000 -1.335969 1.296729 -0.238837 1.341703 -1.290796 0.269071 0.000000 0.000000 0.000000 0.000000 0.000000 0.000000 -0.131455 -0.001133 -71.035908 0.649863 1.360130 0.284294 12.027970 -9.923687 -4.289501 0.000000 0.000000 0.000000 -0.131455 -0.001133 -71.035908 -0.000000 0.000000 0.000000 -0.000000 0.000000 0.000000 0.000000 0.000000 0.000000
49.423723 78.043233 262.685990 0.081363 0.232595 71.157373 -0.246408 0.001882 -71.157535 -0.000000 0.000000 0.000000 -0.000000 0.000000 0.000000 0.000000 0.000000 0.000000 -0.000000 0.000000 0.000000 0.434618 -0.753790 -0.071655 -1.645522 0.840206 -0.351600 2.775905 0.773334 0.479071 0.000000 0.000000 0.000000 0.000000 0.000000 0.000000 -0.000000 0.000000 0.000000 -0.000000 0.000000 0.000000 -2.397023 2.240051 -0.389725 1.360217 -2.916158 0.859197 0.000000 0.000000 0.000000 0.000000 0.000000 0.000000 -0.571435 -0.970815 -71.354341 0.316950 3.007258 0.667236 21.715995 -18.412740 -5.881954 0.000000 0.000000 0.000000 -0.246408 0.001882 -71.157535 -0.000000 0.000000 0.000000 -0.000000 0.000000 0.000000 0.000000 0.000000 0.000000
49.410088 78.193529 262.581217 0.119049 0.323323 71.258376 -0.344430 0.008853 -71.258685 -0.000000 0.000000 0.000000 0.878411 0.011237 -0.311254 0.000000 0.000000 0.000000 -0.000000 0.000000 0.000000 0.559656 -0.847332 -0.086147 -2.224716 1.039225 -0.503161 3.816387 1.016461 0.669959 0.000000 0.000000 0.000000 0.000000 0.000000 0.000000 -0.000000 0.000000 0.000000 -0.000000 0.000000 0.000000 -3.243351 2.888803 -0.478243 1.823154 -3.938755 1.169960 0.000000 0.000000 0.000000 0.000000 0.000000 0.000000 -0.816934 -1.189683 -71.505014 0.485268 3.911622 0.826971 27.989189 -23.894790 -5.887270 0.000000 0.000000 0.000000 -0.344430 0.008853 -71.258685 -0.000000 0.000000 0.000000 -0.000000 0.000000 0.000000 0.000000 0.000000 0.000000
49.392965 78.314529 262.494846 0.154614 0.396531 71.339872 -0.425156 0.019616 -71.340334 -0.000000 0.000000 0.000000 1.030321 0.018518 -0.362804 0.000000 0.000000 0.000000 -0.000000 0.000000 0.000000 0.617821 -0.741983 -0.086769 -2.645125 1.081069 -0.651479 4.629493 1.156149 0.836087 0.000000 0.000000 0.000000 0.000000 0.000000 0.000000 -0.000000 0.000000 0.000000 -0.000000 0.000000 0.000000 -3.915502 3.279840 -0.519600 2.204678 -4.726796 1.411324 0.000000 0.000000 0.000000 0.000000 0.000000 0.000000 -1.041953 -1.265119 -71.609446 0.640512 4.439893 0.889112 30.609183 -26.257249 -5.511948 0.000000 0.000000 0.000000 -1.240664 -0.159740 -71.524784 0.088334 0.830312 0.182813 -0.000000 0.000000 0.000000 0.000000 0.000000 0.000000
49.372355 78.406232 262.426877 0.187975 0.451943 71.402593 -0.488292 0.034030 -71.403190 -0.000000 0.000000 0.000000 1.111560 0.027978 -0.388169 0.000000 0.000000 0.000000 -0.000000 0.000000 0.000000 -0.000000 0.000000 0.000000 -2.300581 0.533454 -0.897459 5.217403 1.187124 0.981221 0.000000 0.000000 0.000000 0.000000 0.000000 0.000000 -0.000000 0.000000 0.000000 -0.000000 0.000000 0.000000 -4.440421 3.432788 -0.522417 2.534713 -5.297903 1.587112 0.000000 0.000000 0.000000 0.000000 0.000000 0.000000 -1.251040 -1.206040 -71.669687 0.779237 4.601915 0.859781 29.550411 -25.702886 -5.323808 0.000000 0.000000 0.000000 -1.377531 -0.171651 -71.610743 0.085371 0.908714 0.205808 -0.000000 0.000000 0.000000 0.000000 0.000000 0.000000
49.340632 78.414905 262.397446 0.213470 0.453996 71.497661 -0.498272 0.058365 -71.498252 -0.000000 0.000000 0.000000 1.069644 0.031071 -0.371945 0.000000 0.000000 0.000000 -0.000000 0.000000 0.000000 -0.000000 0.000000 0.000000 -2.417892 0.960467 -1.001652 5.432844 0.910141 1.127569 0.000000 0.000000 0.000000 0.000000 0.000000 0.000000 -0.000000 0.000000 0.000000 -0.000000 0.000000 0.000000 -4.891338 3.151447 -0.454342 2.867658 -6.357303 1.880568 0.000000 0.000000 0.000000 0.000000 0.000000 0.000000 -1.365248 -1.039523 -71.741002 0.952481 4.570051 0.779545 24.615619 -22.136461 -5.389656 0.000000 0.000000 0.000000 -1.351789 -0.180382 -71.721933 0.041001 0.885330 0.222455 -0.000000 0.000000 0.000000 0.000000 0.000000 0.000000
49.312753 78.431937 262.373066 0.245311 0.472393 71.536642 -0.525765 0.083080 -71.537272 -0.000000 0.000000 0.000000 0.925959 0.063859 -0.307528 0.000000 0.000000 0.000000 -0.676824 -1.201247 0.166381 0.680458 1.199192 -0.180597 -2.518221 1.066642 -1.052090 5.806789 0.656001 1.191224 0.000000 0.000000 0.000000 0.000000 0.000000 0.000000 -0.000000 0.000000 0.000000 0.722041 -0.566404 -0.100090 -6.141158 3.111221 -0.174629 2.872294 -6.016623 1.890816 0.000000 0.000000 0.000000 0.000000 0.000000 0.000000 -1.493601 -0.395010 -71.661287 0.918953 2.966965 0.350827 10.139421 -9.589614 -3.609765 0.000000 0.000000 0.000000 -1.317317 -0.179812 -71.768680 -0.002046 0.834063 0.230754 -0.000000 0.000000 0.000000 0.000000 0.000000 0.000000
49.272526 78.461446 262.364679 0.259285 0.464767 71.519817 -0.522986 0.098597 -71.520419 -0.000000 0.000000 0.000000 0.856923 0.106235 -0.266013 0.000000 0.000000 0.000000 0.276875 -1.383604 -0.049852 -0.888166 2.565455 0.187614 -1.885038 0.479386 -1.286595 5.449698 0.118358 1.322486 0.000000 0.000000 0.000000 0.000000 0.000000 0.000000 -0.000000 0.000000 0.000000 0.823833 -0.648245 -0.113328 -6.314201 3.262887 -0.159879 3.369527 -6.490305 1.942948 0.000000 0.000000 0.000000 0.000000 0.000000 0.000000 -1.595831 -0.015169 -71.575358 1.272040 2.542458 0.061050 4.588133 -5.602231 -1.621594 0.000000 0.000000 0.000000 -0.522986 0.098597 -71.520419 -0.000000 0.000000 0.000000 -0.000000 0.000000 0.000000 0.000000 0.000000 0.000000
49.234087 78.488583 262.376959 0.267450 0.440503 71.453855 -0.502692 0.113453 -71.454386 -0.000000 0.000000 0.000000 0.791979 0.143354 -0.227989 0.000000 0.000000 0.000000 0.322627 -2.361951 -0.048307 -0.544211 5.164552 0.224308 -2.287801 -0.902040 -1.433781 5.846450 0.267882 1.393610 0.000000 0.000000 0.000000 0.000000 0.000000 0.000000 -0.000000 0.000000 0.000000 0.910804 -0.628749 -0.139684 -6.255923 2.991134 -0.101145 3.692010 -5.662603 1.668505 0.000000 0.000000 0.000000 0.000000 0.000000 0.000000 -1.713248 0.069809 -71.499026 1.335241 2.519986 0.012078 1.275621 -4.726900 0.630180 0.000000 0.000000 0.000000 -0.502692 0.113453 -71.454386 -0.000000 0.000000 0.000000 -0.000000 0.000000 0.000000 0.000000 0.000000 0.000000
49.196276 78.503230 262.406175 0.265314 0.407130 71.319054 -0.470659 0.120935 -71.319500 -0.000000 0.000000 0.000000 0.827611 0.195195 -0.220323 0.000000 0.000000 0.000000 0.147290 -2.827426 -0.004815 0.198448 6.555391 0.123031 -3.090670 -1.998277 -1.552372 6.045402 0.490754 1.436869 0.000000 0.000000 0.000000 0.000000 0.000000 0.000000 -0.000000 0.000000 0.000000 0.957888 -0.524287 -0.169910 -6.013665 2.536231 -0.037087 3.459844 -4.760563 1.436876 0.000000 0.000000 0.000000 0.000000 0.000000 0.000000 -1.825343 -0.243547 -71.432312 0.924361 2.874275 0.279241 1.505309 -6.419747 1.583795 0.000000 0.000000 0.000000 -0.470659 0.120935 -71.319500 -0.000000 0.000000 0.000000 -0.000000 0.000000 0.000000 0.000000 0.000000 0.000000
49.143393 78.512137 262.455365 0.232182 0.352279 71.260389 -0.408196 0.106699 -71.260723 -0.000000 0.000000 0.000000 0.978489 0.282402 -0.240309 0.000000 0.000000 0.000000 0.276229 -3.173981 -0.028479 0.240956 7.647026 0.152293 -3.261709 -2.902350 -1.588302 5.540083 1.464123 1.394232 0.000000 0.000000 0.000000 0.000000 0.000000 0.000000 -0.000000 0.000000 0.000000 0.967857 -0.320789 -0.207105 -5.614849 2.443440 -0.056221 3.903961 -5.459400 1.472108 0.000000 0.000000 0.000000 0.000000 0.000000 0.000000 -1.787273 -0.907223 -71.505328 0.695918 4.237490 0.745160 11.523212 -15.338149 -0.356168 0.000000 0.000000 0.000000 -0.408196 0.106699 -71.260723 -0.000000 0.000000 0.000000 -0.000000 0.000000 0.000000 0.000000 0.000000 0.000000
